<svg width="20" height="20" viewBox="0 0 20 20" fill="none" xmlns="http://www.w3.org/2000/svg">
<path d="M15.8335 9.16747H17.5001M16.6668 8.33414V10.0008M10.0001 2.50081H10.3276C9.25709 3.49556 8.56897 4.83401 8.38288 6.28349C8.1968 7.73297 8.52453 9.20183 9.30909 10.4347C10.0937 11.6677 11.2855 12.5867 12.6773 13.032C14.0692 13.4774 15.5731 13.4209 16.9276 12.8725C16.4066 14.1262 15.555 15.215 14.4636 16.0227C13.3723 16.8304 12.0822 17.3267 10.7309 17.4586C9.37962 17.5906 8.01786 17.3533 6.79088 16.772C5.56391 16.1907 4.51774 15.2872 3.76397 14.158C3.0102 13.0287 2.5771 11.716 2.51088 10.3599C2.44466 9.00386 2.7478 7.65522 3.38795 6.4579C4.02811 5.26058 4.98128 4.25949 6.14578 3.56142C7.31028 2.86334 8.64244 2.49447 10.0001 2.49414V2.50081ZM14.1668 3.33414C14.1668 3.77617 14.3424 4.20009 14.655 4.51265C14.9675 4.82521 15.3915 5.00081 15.8335 5.00081C15.3915 5.00081 14.9675 5.1764 14.655 5.48896C14.3424 5.80152 14.1668 6.22545 14.1668 6.66747C14.1668 6.22545 13.9912 5.80152 13.6787 5.48896C13.3661 5.1764 12.9422 5.00081 12.5001 5.00081C12.9422 5.00081 13.3661 4.82521 13.6787 4.51265C13.9912 4.20009 14.1668 3.77617 14.1668 3.33414Z" stroke="black" stroke-width="2" stroke-linecap="round" stroke-linejoin="round"/>
</svg>
