<svg width="20" height="20" viewBox="0 0 20 20" fill="none" xmlns="http://www.w3.org/2000/svg">
<path d="M6.86922 6.11758L1.55255 6.88841L1.45838 6.90758C1.31583 6.94542 1.18588 7.02042 1.08179 7.12491C0.977707 7.22941 0.903219 7.35965 0.865934 7.50235C0.82865 7.64505 0.829905 7.79509 0.869572 7.93714C0.909239 8.07919 0.985896 8.20817 1.09172 8.31091L4.94338 12.0601L4.03505 17.3559L4.02422 17.4476C4.01549 17.595 4.0461 17.7421 4.11292 17.8738C4.17974 18.0055 4.28037 18.1171 4.4045 18.1972C4.52862 18.2772 4.67179 18.3228 4.81934 18.3293C4.96689 18.3358 5.11352 18.303 5.24422 18.2342L9.99922 15.7342L14.7434 18.2342L14.8267 18.2726C14.9643 18.3268 15.1138 18.3434 15.2598 18.3207C15.4059 18.298 15.5434 18.2369 15.658 18.1436C15.7727 18.0503 15.8605 17.9282 15.9124 17.7898C15.9643 17.6513 15.9785 17.5016 15.9534 17.3559L15.0442 12.0601L18.8975 8.31008L18.9625 8.23924C19.0554 8.12489 19.1163 7.98796 19.139 7.84241C19.1617 7.69686 19.1454 7.54789 19.0918 7.41069C19.0382 7.27348 18.9492 7.15294 18.8338 7.06134C18.7184 6.96974 18.5808 6.91036 18.435 6.88925L13.1184 6.11758L10.7417 1.30091C10.6729 1.16136 10.5665 1.04384 10.4344 0.961666C10.3023 0.87949 10.1498 0.835938 9.99422 0.835938C9.83864 0.835938 9.68616 0.87949 9.55406 0.961666C9.42195 1.04384 9.31549 1.16136 9.24672 1.30091L6.86922 6.11758Z" fill="black"/>
</svg>
