<svg width="20" height="20" viewBox="0 0 20 20" fill="none" xmlns="http://www.w3.org/2000/svg">
<path d="M6.66699 9.99935C6.66699 10.8834 7.01818 11.7313 7.6433 12.3564C8.26842 12.9815 9.11627 13.3327 10.0003 13.3327C10.8844 13.3327 11.7322 12.9815 12.3573 12.3564C12.9825 11.7313 13.3337 10.8834 13.3337 9.99935C13.3337 9.11529 12.9825 8.26745 12.3573 7.64233C11.7322 7.0172 10.8844 6.66602 10.0003 6.66602C9.11627 6.66602 8.26842 7.0172 7.6433 7.64233C7.01818 8.26745 6.66699 9.11529 6.66699 9.99935Z" stroke="black" stroke-width="2" stroke-linecap="round" stroke-linejoin="round"/>
<path d="M13.3333 9.99987V11.2499C13.3333 11.8024 13.5528 12.3323 13.9435 12.723C14.3342 13.1137 14.8641 13.3332 15.4167 13.3332C15.9692 13.3332 16.4991 13.1137 16.8898 12.723C17.2805 12.3323 17.5 11.8024 17.5 11.2499V9.99987C17.5021 8.38829 16.985 6.81891 16.0253 5.5242C15.0657 4.22949 13.7145 3.27833 12.172 2.81162C10.6295 2.34491 8.97764 2.38747 7.4612 2.93301C5.94476 3.47854 4.64437 4.49802 3.75267 5.84044C2.86097 7.18285 2.42539 8.77678 2.51046 10.3861C2.59553 11.9955 3.19671 13.5346 4.22496 14.7755C5.25321 16.0164 6.65383 16.8932 8.21933 17.2758C9.78483 17.6584 11.4319 17.5266 12.9167 16.8999" stroke="black" stroke-width="2" stroke-linecap="round" stroke-linejoin="round"/>
</svg>
