<svg width="24" height="24" viewBox="0 0 24 24" fill="none" xmlns="http://www.w3.org/2000/svg">
<path d="M10.833 12.0007C10.833 12.4427 11.0086 12.8666 11.3212 13.1792C11.6337 13.4917 12.0576 13.6673 12.4997 13.6673C12.9417 13.6673 13.3656 13.4917 13.6782 13.1792C13.9907 12.8666 14.1663 12.4427 14.1663 12.0007C14.1663 11.5586 13.9907 11.1347 13.6782 10.8221C13.3656 10.5096 12.9417 10.334 12.4997 10.334C12.0576 10.334 11.6337 10.5096 11.3212 10.8221C11.0086 11.1347 10.833 11.5586 10.833 12.0007Z" stroke="black" stroke-width="2" stroke-linecap="round" stroke-linejoin="round"/>
<path d="M20 12C18 15.3333 15.5 17 12.5 17C9.5 17 7 15.3333 5 12C7 8.66667 9.5 7 12.5 7C15.5 7 18 8.66667 20 12Z" stroke="black" stroke-width="2" stroke-linecap="round" stroke-linejoin="round"/>
</svg>
