<svg width="24" height="24" viewBox="0 0 24 24" fill="none" xmlns="http://www.w3.org/2000/svg">
<path d="M18.2501 12.4771L12.0001 18.6671L5.75009 12.4771C5.33784 12.0759 5.01312 11.5937 4.79638 11.0609C4.57963 10.5281 4.47556 9.95618 4.4907 9.38117C4.50585 8.80615 4.63989 8.2405 4.88439 7.71984C5.12888 7.19917 5.47853 6.73477 5.91133 6.35587C6.34412 5.97698 6.85068 5.6918 7.3991 5.51829C7.94752 5.34479 8.52593 5.28671 9.09789 5.34773C9.66986 5.40874 10.223 5.58752 10.7225 5.87281C11.222 6.1581 11.657 6.54372 12.0001 7.00539C12.3447 6.54708 12.7802 6.16483 13.2793 5.88256C13.7785 5.6003 14.3305 5.4241 14.9009 5.36499C15.4712 5.30588 16.0477 5.36514 16.5941 5.53905C17.1405 5.71296 17.6451 5.99779 18.0764 6.37569C18.5077 6.7536 18.8563 7.21646 19.1004 7.7353C19.3446 8.25414 19.479 8.81779 19.4953 9.39098C19.5117 9.96417 19.4095 10.5346 19.1952 11.0664C18.9809 11.5983 18.6592 12.0802 18.2501 12.4821" stroke="black" stroke-width="2" stroke-linecap="round" stroke-linejoin="round"/>
</svg>
