<svg width="24" height="24" viewBox="0 0 24 24" fill="none" xmlns="http://www.w3.org/2000/svg">
<path d="M12.4003 3C13.4453 3.00065 14.4671 3.30788 15.3391 3.88362C16.2112 4.45936 16.8952 5.27831 17.3063 6.239C18.0023 6.31747 18.676 6.53225 19.289 6.87109C19.902 7.20993 20.4423 7.6662 20.879 8.21383C21.3156 8.76146 21.6402 9.38974 21.834 10.0628C22.0279 10.7358 22.0873 11.4405 22.0088 12.1365C21.9303 12.8325 21.7155 13.5062 21.3767 14.1192C21.0379 14.7322 20.5816 15.2725 20.034 15.7092C19.4863 16.1458 18.8581 16.4704 18.185 16.6642C17.5119 16.8581 16.8073 16.9175 16.1113 16.839C15.6048 17.735 14.791 18.4173 13.8203 18.7598C12.8497 19.1022 11.788 19.0817 10.8313 18.702L7.0003 21V17.866C6.60894 17.7755 6.24307 17.5978 5.92998 17.3462C5.61688 17.0946 5.36464 16.7755 5.19208 16.4128C5.01951 16.0501 4.93108 15.653 4.93337 15.2514C4.93566 14.8497 5.02861 14.4537 5.2053 14.093C4.25055 13.5438 3.51374 12.6829 3.1185 11.6548C2.72326 10.6267 2.69363 9.49389 3.03458 8.44653C3.37554 7.39917 4.06632 6.50093 4.99105 5.90252C5.91578 5.30411 7.01818 5.04194 8.1133 5.16C8.60915 4.48976 9.25531 3.94519 9.99986 3.57005C10.7444 3.19491 11.5666 2.99967 12.4003 3Z" stroke="black" stroke-width="2" stroke-linecap="round" stroke-linejoin="round"/>
</svg>
