<svg width="24" height="24" viewBox="0 0 24 24" fill="none" xmlns="http://www.w3.org/2000/svg">
<path d="M18.3315 10.6733H19.9982M19.1649 9.84V11.5067M12.4982 4.00667H12.8257C11.7551 5.00142 11.067 6.33987 10.8809 7.78935C10.6948 9.23883 11.0226 10.7077 11.8071 11.9406C12.5917 13.1735 13.7835 14.0925 15.1754 14.5379C16.5672 14.9832 18.0711 14.9268 19.4257 14.3783C18.9046 15.6321 18.053 16.7209 16.9617 17.5286C15.8703 18.3362 14.5802 18.8325 13.2289 18.9645C11.8777 19.0965 10.5159 18.8591 9.28893 18.2778C8.06195 17.6965 7.01578 16.7931 6.26201 15.6638C5.50824 14.5346 5.07515 13.2219 5.00893 11.8658C4.94271 10.5097 5.24584 9.16108 5.886 7.96376C6.52616 6.76644 7.47932 5.76535 8.64383 5.06728C9.80833 4.3692 11.1405 4.00033 12.4982 4V4.00667ZM16.6649 4.84C16.6649 5.28203 16.8405 5.70595 17.153 6.01851C17.4656 6.33107 17.8895 6.50667 18.3315 6.50667C17.8895 6.50667 17.4656 6.68226 17.153 6.99482C16.8405 7.30738 16.6649 7.73131 16.6649 8.17333C16.6649 7.73131 16.4893 7.30738 16.1767 6.99482C15.8641 6.68226 15.4402 6.50667 14.9982 6.50667C15.4402 6.50667 15.8641 6.33107 16.1767 6.01851C16.4893 5.70595 16.6649 5.28203 16.6649 4.84Z" stroke="black" stroke-width="2" stroke-linecap="round" stroke-linejoin="round"/>
</svg>
