<svg width="24" height="24" viewBox="0 0 24 24" fill="none" xmlns="http://www.w3.org/2000/svg">
<path d="M12 20V18M15 8.01V8.02M3 17L11 9V8C11 6.93913 11.4214 5.92172 12.1716 5.17157C12.9217 4.42143 13.9391 4 15 4C16.0609 4 17.0783 4.42143 17.8284 5.17157C18.5786 5.92172 19 6.93913 19 8H21L19 10V11C19.0005 12.5684 18.4742 14.0915 17.5057 15.3251C16.5371 16.5586 15.1823 17.4312 13.6586 17.8028C12.1349 18.1744 10.5305 18.0236 9.10277 17.3745C7.67502 16.7253 6.50664 15.6155 5.785 14.223" stroke="black" stroke-width="2" stroke-linecap="round" stroke-linejoin="round"/>
</svg>
